<svg xmlns="http://www.w3.org/2000/svg" viewBox="0 0 40 19.35"><defs><style>.cls-1{fill:#ffcc18;}</style></defs><title>Ресурс 11</title><g id="Слой_2" data-name="Слой 2"><g id="Слой_1-2" data-name="Слой 1"><path class="cls-1" d="M.75,7.17,13.84,9.93l-1-6.83c-.11-.72-.23-1.44-.3-2.17a.61.61,0,0,1,.25-.51A6.07,6.07,0,0,1,14.28,0c.21,0,.52.23.67.43q4.16,5.42,8.29,10.87a2.66,2.66,0,0,0,1.68,1.1c3.81.82,7.61,1.69,11.41,2.53a5.89,5.89,0,0,1,3.22,1.85c.7.79.57,1.48-.38,1.94a5.69,5.69,0,0,1-3.76.48q-13.5-3-27-6.13a3,3,0,0,1-1.09-.49c-2-1.53-4-3.08-6-4.64a5.29,5.29,0,0,1-.6-.65Z"/><path class="cls-1" d="M5.3,7.36c-1.43-.29-2.74-.55-4-.84-.2,0-.49-.23-.52-.39C.46,4.72.24,3.31,0,1.89a1.22,1.22,0,0,1,.24-.12c1.3-.27,1.31-.27,2.05.86L5,6.74C5.08,6.91,5.16,7.1,5.3,7.36Z"/><circle class="cls-1" cx="16.73" cy="17.15" r="1.08" transform="translate(-1.59 1.71) rotate(-5.59)"/><circle class="cls-1" cx="20.86" cy="17.82" r="1.08" transform="translate(-1.64 2.12) rotate(-5.59)"/></g></g></svg>