<svg xmlns="http://www.w3.org/2000/svg" viewBox="0 0 42 14.02"><defs><style>.cls-1{fill:#ffcc18;}</style></defs><title>Ресурс 14</title><g id="Слой_2" data-name="Слой 2"><g id="Слой_1-2" data-name="Слой 1"><path class="cls-1" d="M41.89,6.64a6.59,6.59,0,0,1-4.17,2.45C29.36,10.66,21,12.29,12.64,13.9c-2.19.42-4.23-.37-6.3-.85-1.16-.27-2.28-.7-3.42-1.07l0-.28,12.6-2.64L10.59,1.25A1.19,1.19,0,0,1,10.76,1c1.36-1.23,1.36-1.23,3-.34,3.61,2,7.21,4,10.85,6a2.86,2.86,0,0,0,1.74.27c3.76-.68,7.51-1.44,11.27-2.16A4.79,4.79,0,0,1,42,5.82Z"/><path class="cls-1" d="M0,7.09c.94-.87,1.76-.53,2.67.14C4,8.19,5.37,9,7,10.07c-1.53.34-2.84.65-4.16.88-.19,0-.5-.28-.66-.51C1.41,9.4.71,8.34,0,7.29Z"/></g></g></svg>